<svg xmlns="http://www.w3.org/2000/svg" xmlns:xlink="http://www.w3.org/1999/xlink" version="1.1" width="256" height="256" viewBox="0 0 256 256" xml:space="preserve">

<defs>
</defs>
<g style="stroke: none; stroke-width: 0; stroke-dasharray: none; stroke-linecap: butt; stroke-linejoin: miter; stroke-miterlimit: 10; fill: none; fill-rule: nonzero; opacity: 1;" transform="translate(1.4065934065934016 1.4065934065934016) scale(2.81 2.81)" >
	<path d="M 88.683 67.71 H 1.651 c -0.648 0 -1.22 -0.42 -1.415 -1.037 c -0.195 -0.617 0.033 -1.289 0.564 -1.661 l 43.516 -30.495 c 0.511 -0.358 1.192 -0.358 1.703 0 l 43.516 30.495 c 0.53 0.372 0.759 1.044 0.564 1.661 C 89.903 67.29 89.33 67.71 88.683 67.71 z M 6.353 64.743 h 77.629 l -38.815 -27.2 L 6.353 64.743 z" style="stroke: none; stroke-width: 1; stroke-dasharray: none; stroke-linecap: butt; stroke-linejoin: miter; stroke-miterlimit: 10; fill: #fff; fill-rule: nonzero; opacity: 1;" transform=" matrix(1 0 0 1 0 0) " stroke-linecap="round" />
	<path d="M 45.167 37.229 c -0.819 0 -1.484 -0.664 -1.484 -1.483 v -6.653 c 0 -0.819 0.664 -1.484 1.484 -1.484 c 2.946 0 5.342 -2.397 5.342 -5.343 c 0 -2.946 -2.396 -5.342 -5.342 -5.342 c -2.946 0 -5.342 2.397 -5.342 5.342 c 0 0.819 -0.664 1.483 -1.484 1.483 c -0.819 0 -1.483 -0.664 -1.483 -1.483 c 0 -4.582 3.728 -8.309 8.309 -8.309 c 4.581 0 8.309 3.728 8.309 8.309 c 0 4.076 -2.95 7.476 -6.826 8.177 v 5.302 C 46.65 36.565 45.986 37.229 45.167 37.229 z" style="stroke: none; stroke-width: 1; stroke-dasharray: none; stroke-linecap: butt; stroke-linejoin: miter; stroke-miterlimit: 10; fill: #fff; fill-rule: nonzero; opacity: 1;" transform=" matrix(1 0 0 1 0 0) " stroke-linecap="round" />
</g>
</svg>