<?xml version="1.0" ?><svg viewBox="0 0 256 256" xmlns="http://www.w3.org/2000/svg"><rect fill="none" height="256" width="256"/><line fill="none" stroke="#fff" stroke-linecap="round" stroke-linejoin="round" stroke-width="12" x1="152" x2="184" y1="108" y2="108"/><line fill="none" stroke="#fff" stroke-linecap="round" stroke-linejoin="round" stroke-width="12" x1="72" x2="104" y1="108" y2="108"/><line fill="none" stroke="#fff" stroke-linecap="round" stroke-linejoin="round" stroke-width="12" x1="88" x2="88" y1="92" y2="124"/><path d="M172,55.7,84,56A52.1,52.1,0,0,0,32.8,99h0L16.4,183.1a28,28,0,0,0,47.4,24.7h0L107,160l65-.3a52,52,0,1,0,0-104Z" fill="none" stroke="#fff" stroke-linecap="round" stroke-linejoin="round" stroke-width="12"/><path d="M223.2,98.7l16.4,84.4a28,28,0,0,1-47.4,24.7h0l-43.2-48" fill="none" stroke="#fff" stroke-linecap="round" stroke-linejoin="round" stroke-width="12"/></svg>