<svg xmlns="http://www.w3.org/2000/svg" xmlns:xlink="http://www.w3.org/1999/xlink" version="1.1" width="256" height="256" viewBox="0 0 256 256" xml:space="preserve">

<defs>
</defs>
<g style="stroke: none; stroke-width: 0; stroke-dasharray: none; stroke-linecap: butt; stroke-linejoin: miter; stroke-miterlimit: 10; fill: none; fill-rule: nonzero; opacity: 1;" transform="translate(1.4065934065934016 1.4065934065934016) scale(2.81 2.81)" >
	<path d="M 30.288 64.638 c -0.526 0 -1.052 -0.136 -1.521 -0.406 c -0.939 -0.542 -1.522 -1.552 -1.522 -2.636 V 45.224 c 0 -1.084 0.583 -2.094 1.522 -2.636 c 0.938 -0.542 2.104 -0.542 3.042 0 l 14.177 8.186 c 0.938 0.542 1.521 1.552 1.521 2.635 c 0 1.084 -0.583 2.094 -1.521 2.635 l -14.178 8.188 C 31.34 64.502 30.814 64.638 30.288 64.638 z M 29.809 60.767 C 29.809 60.768 29.809 60.768 29.809 60.767 C 29.809 60.768 29.809 60.768 29.809 60.767 z M 31.245 46.882 v 13.056 L 42.55 53.41 L 31.245 46.882 z" style="stroke: none; stroke-width: 1; stroke-dasharray: none; stroke-linecap: butt; stroke-linejoin: miter; stroke-miterlimit: 10; fill: #fff; fill-rule: nonzero; opacity: 1;" transform=" matrix(1 0 0 1 0 0) " stroke-linecap="round" />
	<path d="M 66.18 79.463 H 7.001 C 3.141 79.463 0 76.322 0 72.462 V 34.358 c 0 -3.86 3.141 -7.001 7.001 -7.001 H 66.18 c 3.86 0 7.001 3.141 7.001 7.001 v 38.104 C 73.181 76.322 70.04 79.463 66.18 79.463 z M 7.001 31.357 C 5.346 31.357 4 32.703 4 34.358 v 38.104 c 0 1.654 1.346 3.001 3.001 3.001 H 66.18 c 1.654 0 3.001 -1.347 3.001 -3.001 V 34.358 c 0 -1.655 -1.347 -3.001 -3.001 -3.001 H 7.001 z" style="stroke: none; stroke-width: 1; stroke-dasharray: none; stroke-linecap: butt; stroke-linejoin: miter; stroke-miterlimit: 10; fill: #fff; fill-rule: nonzero; opacity: 1;" transform=" matrix(1 0 0 1 0 0) " stroke-linecap="round" />
	<path d="M 79.59 71.171 c -1.104 0 -2 -0.896 -2 -2 V 25.948 c 0 -1.655 -1.347 -3.001 -3.001 -3.001 H 10.292 c -1.104 0 -2 -0.896 -2 -2 s 0.896 -2 2 -2 h 64.297 c 3.86 0 7.001 3.141 7.001 7.001 v 43.223 C 81.59 70.275 80.694 71.171 79.59 71.171 z" style="stroke: none; stroke-width: 1; stroke-dasharray: none; stroke-linecap: butt; stroke-linejoin: miter; stroke-miterlimit: 10; fill: #fff; fill-rule: nonzero; opacity: 1;" transform=" matrix(1 0 0 1 0 0) " stroke-linecap="round" />
	<path d="M 88 62.761 c -1.104 0 -2 -0.896 -2 -2 V 17.538 c 0 -1.654 -1.347 -3 -3.001 -3 H 18.702 c -1.104 0 -2 -0.896 -2 -2 s 0.896 -2 2 -2 h 64.297 c 3.86 0 7.001 3.141 7.001 7 v 43.223 C 90 61.865 89.104 62.761 88 62.761 z" style="stroke: none; stroke-width: 1; stroke-dasharray: none; stroke-linecap: butt; stroke-linejoin: miter; stroke-miterlimit: 10; fill: #fff; fill-rule: nonzero; opacity: 1;" transform=" matrix(1 0 0 1 0 0) " stroke-linecap="round" />
</g>
</svg>