<svg xmlns="http://www.w3.org/2000/svg" xmlns:xlink="http://www.w3.org/1999/xlink" version="1.1" width="256" height="256" viewBox="0 0 256 256" xml:space="preserve">

<defs>
</defs>
<g style="stroke: none; stroke-width: 0; stroke-dasharray: none; stroke-linecap: butt; stroke-linejoin: miter; stroke-miterlimit: 10; fill: none; fill-rule: nonzero; opacity: 1;" transform="translate(1.4065934065934016 1.4065934065934016) scale(2.81 2.81)" >
	<path d="M 23.009 65.031 c -0.311 0 -0.61 -0.145 -0.803 -0.404 l -5.354 -7.21 v 6.614 c 0 0.553 -0.448 1 -1 1 s -1 -0.447 -1 -1 v -9.639 c 0 -0.432 0.276 -0.814 0.686 -0.949 c 0.409 -0.136 0.859 0.006 1.117 0.354 l 5.354 7.21 v -6.614 c 0 -0.553 0.448 -1 1 -1 s 1 0.447 1 1 v 9.639 c 0 0.432 -0.276 0.814 -0.686 0.949 C 23.22 65.015 23.114 65.031 23.009 65.031 z" style="stroke: none; stroke-width: 1; stroke-dasharray: none; stroke-linecap: butt; stroke-linejoin: miter; stroke-miterlimit: 10; fill: #fff; fill-rule: nonzero; opacity: 1;" transform=" matrix(1 0 0 1 0 0) " stroke-linecap="round" />
	<path d="M 33.24 60.212 c 0.552 0 1 -0.447 1 -1 s -0.448 -1 -1 -1 h -3.862 v -2.819 h 3.862 c 0.552 0 1 -0.447 1 -1 s -0.448 -1 -1 -1 h -4.862 c -0.552 0 -1 0.447 -1 1 v 9.639 c 0 0.553 0.448 1 1 1 h 4.862 c 0.552 0 1 -0.447 1 -1 s -0.448 -1 -1 -1 h -3.862 v -2.819 H 33.24 z" style="stroke: none; stroke-width: 1; stroke-dasharray: none; stroke-linecap: butt; stroke-linejoin: miter; stroke-miterlimit: 10; fill: #fff; fill-rule: nonzero; opacity: 1;" transform=" matrix(1 0 0 1 0 0) " stroke-linecap="round" />
	<path d="M 46.617 65.031 c -0.43 0 -0.814 -0.275 -0.95 -0.687 l -2.228 -6.758 l -2.228 6.758 c -0.14 0.426 -0.564 0.711 -0.994 0.686 c -0.448 -0.02 -0.828 -0.335 -0.929 -0.771 l -2.248 -9.639 c -0.125 -0.538 0.208 -1.076 0.747 -1.201 c 0.535 -0.122 1.075 0.209 1.201 0.746 l 1.439 6.171 l 2.063 -6.257 c 0.135 -0.409 0.518 -0.687 0.95 -0.687 s 0.814 0.277 0.95 0.687 l 2.063 6.258 l 1.439 -6.172 c 0.125 -0.537 0.658 -0.869 1.201 -0.746 c 0.537 0.125 0.872 0.663 0.746 1.201 l -2.248 9.639 c -0.102 0.436 -0.481 0.751 -0.929 0.771 C 46.646 65.031 46.632 65.031 46.617 65.031 z" style="stroke: none; stroke-width: 1; stroke-dasharray: none; stroke-linecap: butt; stroke-linejoin: miter; stroke-miterlimit: 10; fill: #fff; fill-rule: nonzero; opacity: 1;" transform=" matrix(1 0 0 1 0 0) " stroke-linecap="round" />
	<path d="M 56.452 65.031 h -3.596 c -0.553 0 -1 -0.447 -1 -1 s 0.447 -1 1 -1 h 3.596 c 0.777 0 1.41 -0.632 1.41 -1.409 s -0.633 -1.41 -1.41 -1.41 h -1.187 c -1.88 0 -3.409 -1.529 -3.409 -3.409 s 1.529 -3.41 3.409 -3.41 h 2.777 c 0.553 0 1 0.447 1 1 s -0.447 1 -1 1 h -2.777 c -0.777 0 -1.409 0.633 -1.409 1.41 s 0.632 1.409 1.409 1.409 h 1.187 c 1.88 0 3.41 1.53 3.41 3.41 S 58.332 65.031 56.452 65.031 z" style="stroke: none; stroke-width: 1; stroke-dasharray: none; stroke-linecap: butt; stroke-linejoin: miter; stroke-miterlimit: 10; fill: #fff; fill-rule: nonzero; opacity: 1;" transform=" matrix(1 0 0 1 0 0) " stroke-linecap="round" />
	<path d="M 82.099 17.327 L 65.968 1.196 C 65.196 0.425 64.172 0 63.081 0 H 20.022 c -2.251 0 -4.083 1.832 -4.083 4.083 v 40.056 h -5.426 c -2.1 0 -3.809 1.663 -3.809 3.708 V 69.57 c 0 2.045 1.709 3.708 3.809 3.708 h 5.426 v 12.639 c 0 2.251 1.832 4.083 4.083 4.083 h 59.189 c 2.251 0 4.083 -1.832 4.083 -4.083 V 20.214 C 83.295 19.124 82.87 18.099 82.099 17.327 z M 79.88 17.937 H 67.167 c -0.998 0 -1.81 -0.812 -1.81 -1.809 V 3.414 L 79.88 17.937 z M 8.705 69.57 V 47.847 c 0 -0.941 0.812 -1.707 1.809 -1.707 h 53.93 c 0.997 0 1.809 0.766 1.809 1.707 V 69.57 c 0 0.941 -0.812 1.708 -1.809 1.708 h -53.93 C 9.517 71.278 8.705 70.512 8.705 69.57 z M 81.295 85.917 c 0 1.148 -0.935 2.083 -2.083 2.083 H 20.022 c -1.148 0 -2.083 -0.935 -2.083 -2.083 V 73.278 h 46.504 c 2.1 0 3.809 -1.663 3.809 -3.708 V 47.847 c 0 -2.044 -1.709 -3.708 -3.809 -3.708 H 17.94 V 4.083 C 17.94 2.935 18.874 2 20.022 2 h 43.059 c 0.094 0 0.185 0.015 0.276 0.027 v 14.101 c 0 2.1 1.709 3.809 3.81 3.809 h 14.1 c 0.013 0.092 0.028 0.184 0.028 0.277 V 85.917 z" style="stroke: none; stroke-width: 1; stroke-dasharray: none; stroke-linecap: butt; stroke-linejoin: miter; stroke-miterlimit: 10; fill: #fff; fill-rule: nonzero; opacity: 1;" transform=" matrix(1 0 0 1 0 0) " stroke-linecap="round" />
</g>
</svg>