<svg xmlns="http://www.w3.org/2000/svg" xmlns:xlink="http://www.w3.org/1999/xlink" version="1.1" width="256" height="256" viewBox="0 0 256 256" xml:space="preserve">

<defs>
</defs>
<g style="stroke: none; stroke-width: 0; stroke-dasharray: none; stroke-linecap: butt; stroke-linejoin: miter; stroke-miterlimit: 10; fill: none; fill-rule: nonzero; opacity: 1;" transform="translate(1.4065934065934016 1.4065934065934016) scale(2.81 2.81)" >
	<path d="M 45.014 90 c -0.714 0 -1.431 -0.022 -2.151 -0.067 C 25.66 88.867 11.665 74.518 11.665 57.948 c 0 -10.6 3.264 -15.881 6.42 -20.988 c 2.011 -3.253 3.911 -6.326 4.958 -10.814 c 0.231 -0.989 1.167 -1.65 2.177 -1.532 c 1.009 0.116 1.771 0.971 1.771 1.987 v 13.521 c 0 5.392 4.387 9.779 9.779 9.779 c 2.888 0 5.61 -1.268 7.469 -3.478 c 1.872 -2.226 2.659 -5.149 2.159 -8.021 c -0.765 -4.401 -1.794 -7.955 -2.79 -11.392 c -2.258 -7.797 -4.209 -14.53 -0.731 -25.608 c 0.264 -0.844 1.061 -1.416 1.935 -1.401 c 0.884 0.012 1.655 0.602 1.897 1.452 c 1.476 5.177 6.752 11.575 12.337 18.348 c 9.042 10.966 19.291 23.394 19.291 36.851 c 0 9.166 -3.832 18.024 -10.514 24.304 C 61.57 86.831 53.54 90 45.014 90 z M 22.992 36.587 c -0.496 0.846 -1.002 1.665 -1.504 2.477 c -2.994 4.844 -5.823 9.42 -5.823 18.884 c 0 14.497 12.312 27.054 27.446 27.993 c 8.209 0.506 16.009 -2.297 21.972 -7.9 c 5.967 -5.608 9.253 -13.204 9.253 -21.389 c 0 -12.02 -9.763 -23.86 -18.377 -34.306 c -4.093 -4.964 -8.027 -9.736 -10.609 -14.2 c -1.091 6.737 0.306 11.558 2.1 17.751 c 0.978 3.376 2.086 7.202 2.89 11.82 c 0.702 4.038 -0.405 8.15 -3.039 11.282 c -2.622 3.116 -6.459 4.903 -10.531 4.903 c -7.598 0 -13.779 -6.181 -13.779 -13.779 V 36.587 z" style="stroke: none; stroke-width: 1; stroke-dasharray: none; stroke-linecap: butt; stroke-linejoin: miter; stroke-miterlimit: 10; fill: #fff; fill-rule: nonzero; opacity: 1;" transform=" matrix(1 0 0 1 0 0) " stroke-linecap="round" />
</g>
</svg>